<?xml version="1.0" encoding="utf-8"?>
<!-- Generator: Adobe Illustrator 26.0.1, SVG Export Plug-In . SVG Version: 6.00 Build 0)  -->
<svg version="1.1" xmlns="http://www.w3.org/2000/svg" xmlns:xlink="http://www.w3.org/1999/xlink" x="0px" y="0px"
	 viewBox="0 0 800 800" style="enable-background:new 0 0 800 800;" xml:space="preserve">
<style type="text/css">
	.st0{fill:#706F6F;}
	.st1{fill:#FFFFFF;}
	.st2{fill:#10BE9D;}
	.st3{fill:url(#SVGID_1_);}
	.st4{fill:#E7DED2;}
	.st5{fill:#43413A;}
	.st6{fill:#636055;}
	.st7{fill:#4B3D42;}
	.st8{fill:#AFC0BE;}
	.st9{fill:#5F466E;}
	.st10{opacity:0.92;fill:#E6302C;}
	.st11{fill:#CC0000;}
	.st12{opacity:0.92;fill:#FD3B52;}
	.st13{fill:#FFE669;}
	.st14{fill:#FFCF00;}
	.st15{fill:#000082;}
	.st16{opacity:0.92;fill:#FA8DFF;}
	.st17{fill:#FF00FF;}
	.st18{fill:#FFFFFF;stroke:#1D1D1B;stroke-width:5;stroke-miterlimit:10;}
	.st19{fill:#FFFFFF;stroke:#1D1D1B;stroke-width:4;stroke-miterlimit:10;}
	.st20{fill:#488B92;}
	.st21{fill:#9B6692;}
	.st22{fill:#EBDFD3;}
	.st23{fill:#B3BFBD;}
	.st24{fill:#9B75BB;}
	.st25{fill:#36A9E1;}
	.st26{fill:#83CCF0;}
	.st27{fill:#060702;}
	.st28{fill:url(#SVGID_00000124136266329519531390000006542071193640811142_);}
	.st29{fill:#05060C;}
	.st30{fill:url(#SVGID_00000132052502838465940030000015446289342760249492_);}
</style>
<g id="Capa_1">
	<circle class="st2" cx="400" cy="406.11" r="340.85"/>
	<radialGradient id="SVGID_1_" cx="405.4865" cy="425.9378" r="339.1038" gradientUnits="userSpaceOnUse">
		<stop  offset="0.0302" style="stop-color:#5F466E"/>
		<stop  offset="0.0495" style="stop-color:#564D72"/>
		<stop  offset="0.1177" style="stop-color:#3B607C"/>
		<stop  offset="0.196" style="stop-color:#257085"/>
		<stop  offset="0.2874" style="stop-color:#147D8C"/>
		<stop  offset="0.4006" style="stop-color:#098691"/>
		<stop  offset="0.5593" style="stop-color:#028B93"/>
		<stop  offset="1" style="stop-color:#008C94"/>
	</radialGradient>
	<path class="st3" d="M629.95,471.17c-26.19-2.74-56.58-23.06-58.31-31.37l43.76-17.55l-53.18-33.71l15.32-24.29
		c0,0-17.7-6.07-33.5-18.55c22.21-19.11,83.18-129.94,72.82-137.71c-10.36-7.77-110.45,70.98-110.45,70.98
		c-47.09-15.38-93.71-21.79-104.3-21.79c-10.58,0-62.93,8.45-110.02,23.83c0,0-97.63-77.2-107.99-69.43
		c-10.36,7.77,51.61,115.38,73.82,134.49c-15.8,12.48-34.77,16.14-34.77,16.14l9.7,29.62l-44.04,30.43l43.76,17.55
		c-1.73,8.31-36.35,37.63-62.53,40.37c0,0,25.87,14.27,58.56,14.85c0,0-20.47-0.57-28.44,37.24c3.22-9.2,18.12-7.24,34.47-13.53
		c0,0-15.8,24.66-15.57,54.38c5.76-15.44,42.49-28.64,42.49-28.64s0.4-4.5-0.36,18.17c0,0,16.52-22.56,36.97-26.17
		c27.38,8.21,63.73,68.29,63.73,68.29s25.69-28.72,37.4-28.72c11.71,0,36.67,28.72,36.67,28.72s47.7-75.78,73.22-67.34
		c20.98,20.61,27.77,29.81,27.77,29.81c3.68-22.14-0.68-22.97-0.68-22.97s35.01,13.4,40.76,28.84c0.23-29.72-8.68-57.19-8.68-57.19
		c16.34,6.29,29.97,8.68,33.19,17.87c-10.12-31.52-25.93-38.77-25.93-38.77C608.31,494.44,629.95,471.17,629.95,471.17z"/>
	<path class="st4" d="M522.43,442.78c15.69-7.4,29.91-17.36,29.91-17.36c-8.09-9.45-35.06-30.89-35.06-30.89l16.43-14.04
		c-6.55-7.38-13.44-13.84-20.51-19.5c16.5-22.66,36.65-69.61,36.14-75.9c-0.56-6.89-37.27,18.26-80.78,50.17
		c-29.86-11.79-57.01-13.49-69.56-13.49c-12.28,0-38.54,1.64-67.65,12.75c-45.33-33.36-84.42-60.38-84.99-53.27
		c-0.54,6.63,21.92,58.55,38.83,79.42c-7.2,5.73-14.23,12.3-20.9,19.82l16.43,14.04c0,0-26.97,21.45-35.06,30.89
		c0,0,14.22,9.96,29.91,17.36c0,0-18.76,13.79-27.95,34.85c0,0,26.48-1.91,46.71-9.96c0,0-16.92,12.64-27.58,53.23
		c0,0,4.41-6.51,31.01-13.79c31.74-0.38,56.89,55.91,77.88,92.24c0,0,15.2-22.79,23.36-22.79s23.36,22.79,23.36,22.79
		c20.99-36.33,46.14-92.62,77.88-92.24c26.59,7.28,31.01,13.79,31.01,13.79c-10.67-40.6-27.58-53.23-27.58-53.23
		c20.23,8.04,46.71,9.96,46.71,9.96C541.18,456.57,522.43,442.78,522.43,442.78z"/>
	<path class="st5" d="M441.38,429.94l-2.21-2.41c13.62-27.01,35.34-35.21,60.59-25.45c7.76,3,13.31,10.59,13.38,11.85
		c0.07,1.26-0.97,1.42-3.44-0.83c-4.83-5.02-17.93-7.62-31.03-6.15c-13.3,1.49-25.09,6.56-37.62,34.17l-1.01-2.31l-1.59,1.57
		l-1.04-0.78C438.41,434.87,441.38,429.94,441.38,429.94z"/>
	<path class="st5" d="M357.91,429.87l2.21-2.41c-13.62-27.01-35.34-35.21-60.59-25.45c-7.76,3-13.31,10.59-13.38,11.85
		c-0.07,1.26,0.97,1.42,3.44-0.83c4.83-5.02,17.93-7.62,31.03-6.15c13.3,1.49,25.09,6.56,37.62,34.17l1.01-2.31l1.59,1.57l1.04-0.78
		C360.88,434.8,357.91,429.87,357.91,429.87z"/>
	<path class="st6" d="M295.92,376.78c4.43-1.12,5.79-1.06,7.69-1.56c20.39-5.31,53.5,3.83,58.26,25.14
		c-0.35,1.23-1.8-4.32-9.29-10.05c-6.44-6.5-32.62-18.6-48.69-12.09c-1.52,0.91-8.87,9.29-10.25,11.92
		c-0.67,0.79,3.29-6.79,8.9-12.6c-1.4-0.98-5.97,0.1-5.97,0.1l-0.84-0.27l0.26-0.8"/>
	<path class="st6" d="M503.36,376.71c-4.43-1.12-5.79-1.06-7.69-1.56c-20.39-5.31-53.5,3.83-58.26,25.14
		c0.35,1.23,1.8-4.32,9.29-10.05c6.44-6.5,32.62-18.6,48.69-12.09c1.52,0.91,8.87,9.29,10.25,11.92c0.67,0.79-3.29-6.79-8.9-12.6
		c1.4-0.98,5.97,0.1,5.97,0.1l0.84-0.27l-0.26-0.8"/>
	<path class="st7" d="M399,522.58c-26.27,1.06-39.35,6.94-31.16,15.23c8.04,8.14,23.96,13.88,31.16,15.23
		c7.2-1.35,23.11-7.09,31.16-15.23C438.35,529.52,425.27,523.65,399,522.58z"/>
	<path class="st8" d="M270.69,337.94c-22.03-37.01-29.18-62.09-21.14-57.24c8.04,4.85,33.83,25.02,33.83,25.02
		C275.33,314.53,270.69,337.94,270.69,337.94z"/>
	<path class="st8" d="M525,341.78c22.03-37.01,29.18-62.09,21.14-57.24c-8.04,4.85-33.83,25.02-33.83,25.02
		C520.36,318.37,525,341.78,525,341.78z"/>
	<path class="st9" d="M647.32,475.28c-27.28-2.85-58.93-24.02-60.73-32.67l45.58-18.28l-55.39-35.11L588.23,355
		c0,0-13.94,2.59-30.39-10.4c23.13-19.91,79.24-139.69,68.45-147.78S502.2,268.17,502.2,268.17c-3.91-1.28-7.7-2.45-11.39-3.53
		c-0.6-0.19-1.2-0.37-1.82-0.53c-0.12-0.03-0.23-0.06-0.35-0.09c-7.58-2.18-14.69-3.97-21.3-5.43
		c-42.64-10.33-67.26-12.16-110.18-4.63c-12.78,1.6-28.9,4.62-48,10.12c-0.05,0.01-0.1,0.02-0.15,0.03l0,0.01
		c-4.26,1.23-8.66,2.57-13.21,4.05c0,0-113.3-79.43-124.09-71.34c-10.79,8.09,45.32,127.87,68.45,147.78
		C223.7,357.6,209.77,355,209.77,355l11.45,34.22l-55.39,35.11l45.58,18.28c-1.8,8.65-33.45,29.81-60.73,32.67
		c0,0,22.54,24.23,56.59,24.84c0,0-15.98,11.46-24.28,50.83c3.36-9.58,24.46-21.56,41.48-28.11c0,0-14.57,37.37-14.33,68.32
		c5.99-16.08,48.27-44.11,48.27-44.11s-7.5,10.73-3.66,33.79c0,0,11.32-18.99,33.17-40.46c29.47-9.83,48.63,41.77,65.1,60.09
		c1.71,2.18,4.45,4.96,7.79,5.87c0.02,0.01,0.03,0.01,0.05,0.02c0.02,0.01,0.03,0,0.04,0.01c2.21,0.58,4.69,0.34,7.31-1.44
		c1.17-0.69,2.61-1.72,4.21-2.98c0.35-0.25,0.7-0.51,1.06-0.77c2.17-1.59,3.61-2.87,4.49-3.91c8.77-7.81,21.57-20.29,19.68-20.65
		c-1.68-0.32-12.95,6.21-20.29,11.89l0,0c-5.9,3.78-14.98,11.69-16.81,13.3c-5.98-16.94-39.01-74.93-62.77-76.41
		c-14.06,4.13-28.58,22.43-28.58,22.43c2.74-16.89,7.67-25.18,7.67-25.18s-41.09,15.1-45.8,28.06
		c-0.19-24.94,26.59-47.75,26.59-47.75c-13.37,5.28-33.17,2-37.87,8.66c12.94-18.37,26.43-23.3,26.43-23.3
		c-31.82,0.08-51.37-10.75-51.37-10.75c21.42-2.3,51.13-32.28,52.54-39.25l-39.11-18.26l44.64-21.72l-9.55-27.1
		c0,0,13.68-1.42,26.61-11.88c-18.17-16.04-64.65-111.16-56.17-117.68c8.48-6.52,94.8,59.1,94.8,59.1
		c20.92-7.01,39.4-11.03,53.31-13.24v0c0.02,0,0.05-0.01,0.07-0.01c8.5-1.35,15.28-2.03,19.87-2.29c29.25-2.3,56.78,0.32,80.57,7.17
		c0,0,0,0,0,0c8.93,2.15,18.73,4.9,29.13,8.38c0,0,86.33-65.62,94.81-59.1c8.48,6.52-38.01,101.65-56.17,117.68
		C543.13,369.8,563.2,373,563.2,373l-15.93,25.32l39.15,23.93l-33.63,16.05c1.41,6.97,31.19,38.39,52.61,40.69
		c0,0-19.02,5.35-50.84,5.28c0,0,21.76,8.61,28.9,31.77c-0.17-0.55-25.06-10.31-40.94-13.1c0,0,26.91,27.85,24.03,52.31
		c-21.58-24.46-44.12-31.65-44.12-31.65s11.51,14.03,12.23,31.11c0,0-17.89-21.07-26.88-25.56c-27.59-2.76-62.76,55.36-69.5,71.89
		l-0.13,0.05c0,0-12.71-9.13-19.29-13.34l0,0c-7.33-5.67-16.51-11.45-18.18-11.13c-1.89,0.36,8.8,12.08,17.57,19.9
		c0.89,1.03,2.32,2.31,4.49,3.91c0.36,0.27,0.71,0.52,1.06,0.77c1.6,1.26,3.04,2.28,4.21,2.98c3.21,2.19,6.56,2.17,9.54,1.17
		c0.01,0,0.01,0,0.02,0c0.03-0.01,0.06-0.02,0.09-0.03c2.89-1,5.43-2.91,7.18-4.67c17.15-16.02,32.71-62.51,65.23-60.26
		c21.85,21.47,33.17,40.46,33.17,40.46c3.84-23.06-3.66-33.79-3.66-33.79s42.27,28.02,48.27,44.11
		c0.24-30.95-14.33-68.32-14.33-68.32c17.02,6.55,38.13,18.53,41.48,28.11c-8.3-39.38-24.28-50.83-24.28-50.83
		C624.78,499.51,647.32,475.28,647.32,475.28z"/>
</g>
<g id="Capa_2">
</g>
</svg>
